<?xml version="1.0" encoding="UTF-8"?>
<svg version="1.1" xmlns="http://www.w3.org/2000/svg" width="1024" height="1024">
<path d="M0 0 C7.42023014 0.0130333 14.8403854 0.00225482 22.26061198 -0.00881578 C36.79271991 -0.02973476 51.32475692 -0.02811132 65.85687137 -0.01650013 C78.5738183 -0.00639059 91.29073941 -0.00383299 104.00768954 -0.0085907 C104.85512574 -0.00889624 105.70256195 -0.00920178 106.57567804 -0.00951658 C110.0166983 -0.01076217 113.45771855 -0.0120358 116.89873879 -0.01335564 C149.09798269 -0.02555835 181.29718173 -0.01455043 213.49641869 0.00703195 C242.0332006 0.02601412 270.56991108 0.0243091 299.10669237 0.00518798 C331.25452361 -0.01628133 363.40231531 -0.02469595 395.55015272 -0.01236296 C398.98385395 -0.01108031 402.41755519 -0.00982894 405.85125643 -0.0085907 C407.11922142 -0.00811624 407.11922142 -0.00811624 408.41280187 -0.00763219 C421.11559732 -0.00310355 433.81836397 -0.00836341 446.52115542 -0.01850891 C460.97934389 -0.02999968 475.43745112 -0.0269729 489.8956296 -0.00538594 C497.25943214 0.0052493 504.62310219 0.00976964 511.98690325 -0.00398255 C590.24656831 -0.1408534 590.24656831 -0.1408534 624.79565722 14.52667236 C625.93454394 15.00040283 625.93454394 15.00040283 627.09643847 15.48370361 C642.86857966 22.25966921 656.35273784 30.92889938 669.79565722 41.52667236 C670.34205859 41.95512451 670.88845995 42.38357666 671.45141894 42.8250122 C673.00978908 44.05115529 674.55917892 45.28868585 676.10815722 46.52667236 C677.01179003 47.24854736 677.91542284 47.97042236 678.84643847 48.71417236 C679.48968066 49.31229736 680.13292284 49.91042236 680.79565722 50.52667236 C680.79565722 51.18667236 680.79565722 51.84667236 680.79565722 52.52667236 C682.11565722 53.18667236 683.43565722 53.84667236 684.79565722 54.52667236 C684.79565722 55.18667236 684.79565722 55.84667236 684.79565722 56.52667236 C686.11565722 57.18667236 687.43565722 57.84667236 688.79565722 58.52667236 C688.79565722 59.18667236 688.79565722 59.84667236 688.79565722 60.52667236 C689.60970019 60.80897705 689.60970019 60.80897705 690.44018847 61.09698486 C693.92456847 63.21188217 696.02016021 66.19814513 698.48315722 69.40167236 C698.98137987 70.02686767 699.47960253 70.65206298 699.99292284 71.29620361 C702.39325155 74.37722255 704.02916242 76.63523725 704.79565722 80.52667236 C705.45565722 80.52667236 706.11565722 80.52667236 706.79565722 80.52667236 C720.94072126 100.71206104 730.54799328 125.61031562 734.98315722 149.65167236 C735.15033251 150.52638183 735.3175078 151.4010913 735.48974902 152.30230713 C738.6095896 170.2900124 737.94083209 188.92909347 737.92264086 207.11372375 C737.92379528 209.65007135 737.92538495 212.18641878 737.92736811 214.72276586 C737.93065468 220.20304104 737.93088766 225.68330271 737.92832095 231.16357803 C737.92451446 239.3133446 737.92648456 247.46310295 737.92952925 255.61286948 C737.93477732 270.17406826 737.93434569 284.73526263 737.93145034 299.29646182 C737.92892922 312.03902085 737.92828067 324.78157827 737.92947298 337.52413749 C737.92958756 338.79476463 737.92958756 338.79476463 737.92970445 340.09106101 C737.93001582 343.53012679 737.93033422 346.96919257 737.93066422 350.40825835 C737.93371927 382.63134065 737.93095597 414.85442015 737.92556732 447.07750201 C737.92082173 475.67262084 737.92124716 504.26773521 737.92602831 532.862854 C737.93138891 565.03062442 737.93350299 597.19839238 737.93041605 629.36616319 C737.93009536 632.79844979 737.92978252 636.23073639 737.92947298 639.66302299 C737.92939391 640.50806634 737.92931483 641.35310969 737.92923336 642.22376042 C737.92809839 654.95544425 737.92942147 667.6871263 737.93195254 680.41880989 C737.93481756 694.90209581 737.93408466 709.38537665 737.92867179 723.86866194 C737.92574598 731.96317921 737.92552864 740.05768547 737.92931797 748.15220244 C737.93184015 754.21070985 737.92908421 760.26920316 737.92434339 766.32770972 C737.9232324 768.76754131 737.9237809 771.20737438 737.92621918 773.647205 C737.9362309 784.50364194 737.90798267 795.34199333 737.35339457 806.18653011 C737.3150751 806.93755531 737.27675562 807.68858051 737.23727495 808.46236405 C736.85902044 814.91968014 735.85049846 821.15112877 734.48315722 827.46417236 C734.18248339 828.97334228 734.18248339 828.97334228 733.87573534 830.51300048 C732.38071369 837.71965285 730.2536911 844.59423364 727.79565722 851.52667236 C727.39862597 852.66620361 727.00159472 853.80573486 726.59253222 854.97979736 C721.79818558 867.78857421 715.67287156 881.2856746 707.79565722 892.52667236 C707.13565722 892.52667236 706.47565722 892.52667236 705.79565722 892.52667236 C705.56878222 893.20729736 705.34190722 893.88792236 705.10815722 894.58917236 C703.48339575 898.22554326 701.46762465 901.55496499 698.79565722 904.52667236 C698.13565722 904.52667236 697.47565722 904.52667236 696.79565722 904.52667236 C696.73378222 905.08354736 696.67190722 905.64042236 696.60815722 906.21417236 C695.48163965 909.42041467 693.18553567 911.21179722 690.79565722 913.52667236 C689.6305694 914.69884278 688.46796153 915.87348151 687.30737597 917.05010986 C674.19711981 930.27456092 661.1434121 941.37971427 644.79565722 950.52667236 C643.92425097 951.0410083 643.05284472 951.55534423 642.15503222 952.08526611 C635.06003149 956.17445066 627.65034843 959.06694526 619.94897753 961.7678833 C617.79487738 962.52694716 615.65114188 963.31139722 613.50659472 964.09698486 C597.89282874 969.69717586 582.239867 972.46916743 565.70884329 973.6201744 C564.48734997 973.70556806 563.26585664 973.79096172 562.00734836 973.87894307 C549.68557809 974.68384678 537.40314721 974.80653444 525.05968005 974.78063964 C522.60462485 974.78295199 520.14957035 974.78613364 517.69451726 974.79009413 C512.41642639 974.79663538 507.13837288 974.79715766 501.860282 974.79199981 C494.01086349 974.78435053 486.16147887 974.7883454 478.31206049 974.79441643 C464.28318729 974.8048851 450.25433244 974.80406041 436.22545755 974.7982586 C423.94841057 974.79320684 411.67137027 974.79192365 399.39432246 974.79430389 C398.16785209 974.79453305 398.16785209 974.79453305 396.91660455 974.79476683 C393.59665815 974.79538961 390.27671176 974.79602642 386.95676537 974.79668636 C355.87994286 974.80278995 324.80313196 974.79728027 293.72631123 974.78649256 C266.17707334 974.77700207 238.62785394 974.77785303 211.0786162 974.78741455 C180.05335877 974.79814676 149.02811159 974.80235779 118.00285256 974.79619002 C114.68962711 974.79554868 111.37640167 974.794923 108.06317622 974.79430389 C107.24750726 974.79414574 106.43183831 974.79398758 105.59145211 974.79382463 C93.32793844 974.79155923 81.06443223 974.79419232 68.80091959 974.799263 C54.84359482 974.80500561 40.88629109 974.80350079 26.9289689 974.79270151 C19.1382437 974.78687076 11.34756417 974.78638434 3.55684025 974.79399386 C-2.28940535 974.79906957 -8.13560482 974.79348347 -13.98184322 974.78404471 C-16.32467368 974.78183702 -18.66751035 974.78288653 -21.0103367 974.78779629 C-33.22195748 974.81139558 -45.3552381 974.51833457 -57.53927988 973.65533065 C-58.62574264 973.58045913 -59.7122054 973.50558761 -60.83159128 973.42844726 C-77.10303214 972.15890472 -92.94207825 968.2439651 -108.20434278 962.52667236 C-108.9405586 962.25564697 -109.67677442 961.98462158 -110.43529981 961.7053833 C-119.03670183 958.52888039 -127.35967469 955.32304401 -135.20434278 950.52667236 C-136.12086622 950.01620361 -137.03738966 949.50573486 -137.98168653 948.97979736 C-145.54377857 944.73646128 -152.39079295 939.87887102 -159.20434278 934.52667236 C-160.06285841 933.87440673 -160.92137403 933.22214111 -161.80590528 932.55010986 C-179.71043858 918.54021824 -193.26880725 901.6999526 -205.20434278 882.52667236 C-205.79602247 881.58178955 -206.38770216 880.63690673 -206.99731153 879.66339111 C-209.82432177 875.06339174 -212.17913592 870.54566327 -214.20434278 865.52667236 C-215.03542987 863.75478371 -215.86898059 861.98404952 -216.70434278 860.21417236 C-220.53879791 851.76692494 -222.65161059 842.95118404 -224.84716505 833.97125244 C-225.54595059 831.11448346 -226.27376264 828.31841279 -227.20434278 825.52667236 C-231.66718127 797.21197022 -230.6397863 768.19539593 -230.59934662 739.63756726 C-230.58956623 732.28373508 -230.59765903 724.92994532 -230.60595888 717.57611516 C-230.62164244 703.17405881 -230.62043279 688.77204272 -230.61172215 674.36998267 C-230.60413771 661.76616746 -230.60222284 649.16236691 -230.60579008 636.55854988 C-230.60601923 635.71840439 -230.60624839 634.87825891 -230.60648449 634.01265447 C-230.60741869 630.60116275 -230.60837391 627.18967103 -230.60936378 623.77817932 C-230.61851455 591.85906442 -230.61026205 559.93997498 -230.59407309 528.02086403 C-230.57983789 499.73901372 -230.5811143 471.45720395 -230.59545606 443.175354 C-230.61156231 411.3084026 -230.61786655 379.44147364 -230.60861927 347.57451874 C-230.6076573 344.17000552 -230.60671877 340.7654923 -230.60579008 337.36097908 C-230.60555285 336.52286618 -230.60531561 335.68475329 -230.60507119 334.82124303 C-230.60167633 322.23285228 -230.60561657 309.64447788 -230.61322874 297.0560894 C-230.62185173 282.72572184 -230.61956646 268.39540039 -230.60338651 254.06503849 C-230.59541651 246.76783431 -230.5920097 239.47070528 -230.60233396 232.17350196 C-230.70293651 156.15141745 -230.70293651 156.15141745 -222.20434278 128.52667236 C-221.96763868 127.75178466 -221.73093458 126.97689697 -221.48705763 126.17852783 C-216.65370056 110.86811162 -209.71837158 93.78930296 -199.20434278 81.52667236 C-197.62243155 79.14623656 -196.09442821 76.73812927 -194.57153028 74.31964111 C-194.12035841 73.72796142 -193.66918653 73.13628173 -193.20434278 72.52667236 C-192.54434278 72.52667236 -191.88434278 72.52667236 -191.20434278 72.52667236 C-191.14246778 71.96979736 -191.08059278 71.41292236 -191.01684278 70.83917236 C-189.86876641 67.57157039 -187.67101506 65.9407877 -185.20434278 63.52667236 C-183.59150074 61.74281118 -181.98747322 59.95094545 -180.39184278 58.15167236 C-176.24886529 53.57161997 -171.95973395 49.45548266 -167.20434278 45.52667236 C-166.62426466 45.0200708 -166.04418653 44.51346923 -165.44653028 43.99151611 C-161.45086089 40.52667236 -161.45086089 40.52667236 -159.20434278 40.52667236 C-159.20434278 39.86667236 -159.20434278 39.20667236 -159.20434278 38.52667236 C-157.44402414 37.20419947 -155.61777153 35.96903095 -153.76684278 34.77667236 C-152.75750684 34.12182861 -151.74817091 33.46698486 -150.70824903 32.79229736 C-150.15387159 32.43772461 -149.59949415 32.08315185 -149.02831739 31.71783447 C-147.73208799 30.87132085 -146.45033469 30.00245721 -145.1791963 29.11871338 C-139.38417953 25.11534258 -133.3856873 21.95781055 -127.01684278 18.96417236 C-125.49401685 18.24475463 -125.49401685 18.24475463 -123.94042677 17.51080322 C-116.48313149 14.03199963 -109.09557034 10.90068787 -101.20434278 8.52667236 C-100.12281934 8.18378173 -99.04129591 7.84089111 -97.92699903 7.48760986 C-66.21109658 -1.5347207 -32.61406291 -0.06097236 0 0 Z " fill="#FEFEFE" transform="translate(259.2043427815661,23.47332764044404)"/>
<path d="M0 0 C43.56 0 87.12 0 132 0 C132 192.06 132 384.12 132 582 C117.14522991 586.33264128 102.6519787 590.44383554 87.5625 593.5625 C85.73583455 593.94488032 83.90917451 594.32728645 82.08251953 594.7097168 C77.55866641 595.65177554 73.03153731 596.5767281 68.50238037 597.49291992 C66.17473767 597.96459132 63.84825454 598.44159291 61.52197266 598.91992188 C40.12885331 603.29269518 18.70682753 605.74394528 -3.03442383 607.64013672 C-6.00522806 607.90972765 -8.95412056 608.22908772 -11.9140625 608.58984375 C-20.21078399 609.42476192 -28.60820039 609.24465653 -36.9375 609.25 C-38.35603271 609.25101212 -38.35603271 609.25101212 -39.80322266 609.25204468 C-88.40678638 609.19738917 -137.80439473 602.6595647 -181 579 C-181.62036133 578.66419922 -182.24072266 578.32839844 -182.87988281 577.98242188 C-216.94339939 559.3121429 -239.61152435 529.46745309 -256 495 C-256.3292749 494.31728027 -256.6585498 493.63456055 -256.99780273 492.93115234 C-259.81953523 486.87186739 -261.73997225 480.6718506 -263.5625 474.25 C-263.85318359 473.25484375 -264.14386719 472.2596875 -264.44335938 471.234375 C-279.87203919 417.66544641 -276.65764819 355.11009131 -254 304 C-253.69465332 303.30487305 -253.38930664 302.60974609 -253.07470703 301.89355469 C-247.73760334 289.84436467 -241.55573228 278.79509289 -234 268 C-233.61295898 267.43651855 -233.22591797 266.87303711 -232.82714844 266.29248047 C-216.71991682 243.07580147 -194.00018897 225.65506642 -169 213 C-168.36143066 212.67451172 -167.72286133 212.34902344 -167.06494141 212.01367188 C-162.77402519 209.85298976 -158.42441248 207.87122916 -154 206 C-153.33049316 205.71560059 -152.66098633 205.43120117 -151.97119141 205.13818359 C-130.79660714 196.33383364 -107.76942616 191.35055512 -85 189 C-84.12722412 188.9064624 -83.25444824 188.8129248 -82.35522461 188.71655273 C-74.22879411 187.9355783 -66.12129711 187.81382054 -57.96508789 187.81469727 C-55.70114244 187.81251316 -53.43768789 187.7942868 -51.17382812 187.77539062 C-33.68082412 187.70271656 -17.37490513 190.97827737 0 194 C0 129.98 0 65.96 0 0 Z " fill="#080809" transform="translate(487,108)"/>
<path d="M0 0 C37.29 0 74.58 0 113 0 C113.02217678 34.59851247 113.04058948 69.19701786 113.05106533 103.79553533 C113.05231556 107.90958867 113.05360993 112.02364199 113.05493164 116.13769531 C113.05532511 117.36589532 113.05532511 117.36589532 113.05572652 118.61890745 C113.06004048 131.75879709 113.06790365 144.89868222 113.0771528 158.03856921 C113.08660975 171.58990943 113.09208063 185.14124733 113.09408849 198.69259071 C113.09532006 206.27522831 113.09822971 213.85785652 113.10573006 221.44049072 C113.13234069 249.22356578 113.1377502 277.00273316 112.55639648 304.78125 C112.5271887 306.20510765 112.5271887 306.20510765 112.49739087 307.6577301 C112.11953731 325.4587674 111.36774099 343.24181786 110.0625 361 C109.93500366 362.76899658 109.93500366 362.76899658 109.80493164 364.57373047 C109.2190916 372.51942137 108.54254967 380.45242854 107.69750977 388.375 C107.22960261 392.91561422 106.9272524 397.43856556 106.7252655 401.99943542 C106.2432683 412.43075289 105.01063367 422.68282927 103.52587891 433.01538086 C103.12306609 435.82599382 102.73460724 438.63833586 102.34765625 441.45117188 C98.04822327 472.2056638 88.96989697 503.28058496 71 529 C70.319375 529.97839844 69.63875 530.95679688 68.9375 531.96484375 C58.16011931 546.69271702 44.74581383 559.31144309 30 570 C29.34032227 570.48275391 28.68064453 570.96550781 28.00097656 571.46289062 C-2.69204225 593.8399254 -2.69204225 593.8399254 -11 593 C-14.74018776 591.66055594 -18.29239376 589.96117725 -21.875 588.25 C-22.92929199 587.75556396 -23.98358398 587.26112793 -25.06982422 586.75170898 C-40.07896476 579.66820559 -54.93036537 572.31480367 -69.4375 564.25 C-82.25921197 557.12322912 -95.50313095 550.86148337 -108.7303009 544.53240967 C-113.17836932 542.40220255 -117.60033262 540.22825532 -122 538 C-118.3380092 533.76084761 -113.79006655 531.38016972 -109 528.625 C-87.11664904 515.75161763 -66.28737433 500.63604319 -48 483 C-47.20335937 482.278125 -46.40671875 481.55625 -45.5859375 480.8125 C-16.75061931 453.9131219 -6.99272763 410.54574084 -4.23364258 372.91918945 C-4 371 -4 371 -3 368 C-2.7954365 365.18441077 -2.62781322 362.38149159 -2.5 359.5625 C-2.43074773 358.04279734 -2.35794454 356.52325151 -2.28125 355.00390625 C-2.25095703 354.33174072 -2.22066406 353.6595752 -2.18945312 352.96704102 C-2 351 -2 351 -1.52287197 349.36039448 C2.09429333 333.03146986 0.13888744 314.71887838 0.11606562 298.06465256 C0.11169429 294.05336084 0.11321222 290.04207042 0.1139679 286.03077698 C0.11448895 279.10280276 0.11138623 272.17483805 0.10573006 265.24686623 C0.09755784 255.23052818 0.09499401 245.21419467 0.09374207 235.19785365 C0.09156048 218.94187705 0.08492475 202.6859055 0.07543945 186.42993164 C0.06624213 170.65096054 0.05917268 154.87199082 0.05493164 139.09301758 C0.05453756 137.63090337 0.05453756 137.63090337 0.05413551 136.13925151 C0.05283035 131.2486182 0.05156667 126.35798488 0.05032361 121.46735156 C0.03997884 80.97822988 0.02155564 40.48911757 0 0 Z " fill="#09090A" transform="translate(692,290)"/>
<path d="M0 0 C0 69.63 0 139.26 0 211 C-10.91061862 212.45474915 -21.00204683 213.40334466 -31.875 213.375 C-32.63091431 213.37478851 -33.38682861 213.37457703 -34.16564941 213.37435913 C-63.92556459 213.29188813 -94.33092788 207.90661588 -116.47998047 186.54785156 C-129.98598191 172.79455102 -138.31032512 156.09447379 -142.625 137.4375 C-142.8415625 136.53064453 -143.058125 135.62378906 -143.28125 134.68945312 C-150.73480364 102.96584058 -146.62496114 67.25583654 -130.1875 38.9375 C-125.81069097 32.29919633 -120.53215164 26.6710683 -115 21 C-114.34386719 20.27039063 -113.68773437 19.54078125 -113.01171875 18.7890625 C-105.51414964 10.66535807 -95.13742825 4.30381763 -85 0 C-84.26652344 -0.32355469 -83.53304687 -0.64710938 -82.77734375 -0.98046875 C-56.47195743 -11.59206972 -25.96305318 -11.12702279 0 0 Z " fill="#FDFDFD" transform="translate(486,403)"/>
<path d="M0 0 C37.29 0 74.58 0 113 0 C113 39.93 113 79.86 113 121 C75.71 121 38.42 121 0 121 C0 81.07 0 41.14 0 0 Z " fill="#0A0B0C" transform="translate(692,107)"/>
<path d="M0 0 C0.95930163 3.8372065 1.15195929 5.35212892 0 9 C-0.99 9.66 -1.98 10.32 -3 11 C-2.01 7.37 -1.02 3.74 0 0 Z " fill="#434444" transform="translate(226,430)"/>
</svg>
